<svg style="background-color: white;padding: 2px" width="167" height="58" viewBox="0 0 147 48" fill="none" xmlns="http://www.w3.org/2000/svg">
<rect x="0.609375" y="0.5" width="145" height="47" rx="7.5" stroke="#334155"/>
<g clip-path="url(#clip0_36_75)">
<path d="M31.9932 22.9404L21.2168 12.1348L34.9277 20.0059L31.9932 22.9404ZM18.4043 11.5C17.7695 11.832 17.3447 12.4375 17.3447 13.2236V34.7715C17.3447 35.5576 17.7695 36.1631 18.4043 36.4951L30.9336 23.9951L18.4043 11.5ZM39.166 22.5156L36.29 20.8506L33.082 24L36.29 27.1494L39.2246 25.4844C40.1035 24.7861 40.1035 23.2139 39.166 22.5156ZM21.2168 35.8652L34.9277 27.9941L31.9932 25.0596L21.2168 35.8652Z" fill="#334155"/>
</g>
<path d="M59.7974 22.112C59.7974 23.04 59.4774 23.8133 58.8374 24.432C58.208 25.04 57.2427 25.344 55.9414 25.344H53.7974V30H52.3414V18.848H55.9414C57.2 18.848 58.1547 19.152 58.8054 19.76C59.4667 20.368 59.7974 21.152 59.7974 22.112ZM55.9414 24.144C56.752 24.144 57.3494 23.968 57.7334 23.616C58.1174 23.264 58.3094 22.7627 58.3094 22.112C58.3094 20.736 57.52 20.048 55.9414 20.048H53.7974V24.144H55.9414ZM63.063 18.16V30H61.607V18.16H63.063ZM65.0005 25.584C65.0005 24.688 65.1818 23.904 65.5445 23.232C65.9072 22.5493 66.4032 22.0213 67.0325 21.648C67.6725 21.2747 68.3818 21.088 69.1605 21.088C69.9285 21.088 70.5952 21.2533 71.1605 21.584C71.7258 21.9147 72.1472 22.3307 72.4245 22.832V21.232H73.8965V30H72.4245V28.368C72.1365 28.88 71.7045 29.3067 71.1285 29.648C70.5632 29.9787 69.9018 30.144 69.1445 30.144C68.3658 30.144 67.6618 29.952 67.0325 29.568C66.4032 29.184 65.9072 28.6453 65.5445 27.952C65.1818 27.2587 65.0005 26.4693 65.0005 25.584ZM72.4245 25.6C72.4245 24.9387 72.2912 24.3627 72.0245 23.872C71.7578 23.3813 71.3952 23.008 70.9365 22.752C70.4885 22.4853 69.9925 22.352 69.4485 22.352C68.9045 22.352 68.4085 22.48 67.9605 22.736C67.5125 22.992 67.1552 23.3653 66.8885 23.856C66.6218 24.3467 66.4885 24.9227 66.4885 25.584C66.4885 26.256 66.6218 26.8427 66.8885 27.344C67.1552 27.8347 67.5125 28.2133 67.9605 28.48C68.4085 28.736 68.9045 28.864 69.4485 28.864C69.9925 28.864 70.4885 28.736 70.9365 28.48C71.3952 28.2133 71.7578 27.8347 72.0245 27.344C72.2912 26.8427 72.4245 26.2613 72.4245 25.6ZM83.909 21.232L78.629 34.128H77.125L78.853 29.904L75.317 21.232H76.933L79.685 28.336L82.405 21.232H83.909ZM93.1743 30.112C92.4383 30.112 91.7769 29.984 91.1903 29.728C90.6143 29.4613 90.1609 29.0987 89.8303 28.64C89.4996 28.1707 89.3289 27.632 89.3183 27.024H90.8703C90.9236 27.5467 91.1369 27.9893 91.5103 28.352C91.8943 28.704 92.4489 28.88 93.1743 28.88C93.8676 28.88 94.4116 28.7093 94.8063 28.368C95.2116 28.016 95.4143 27.568 95.4143 27.024C95.4143 26.5973 95.2969 26.2507 95.0623 25.984C94.8276 25.7173 94.5343 25.5147 94.1823 25.376C93.8303 25.2373 93.3556 25.088 92.7583 24.928C92.0223 24.736 91.4303 24.544 90.9823 24.352C90.5449 24.16 90.1663 23.8613 89.8463 23.456C89.5369 23.04 89.3823 22.4853 89.3823 21.792C89.3823 21.184 89.5369 20.6453 89.8463 20.176C90.1556 19.7067 90.5876 19.344 91.1423 19.088C91.7076 18.832 92.3529 18.704 93.0783 18.704C94.1236 18.704 94.9769 18.9653 95.6383 19.488C96.3103 20.0107 96.6889 20.704 96.7743 21.568H95.1743C95.1209 21.1413 94.8969 20.768 94.5023 20.448C94.1076 20.1173 93.5849 19.952 92.9343 19.952C92.3263 19.952 91.8303 20.112 91.4463 20.432C91.0623 20.7413 90.8703 21.1787 90.8703 21.744C90.8703 22.1493 90.9823 22.48 91.2063 22.736C91.4409 22.992 91.7236 23.1893 92.0543 23.328C92.3956 23.456 92.8703 23.6053 93.4783 23.776C94.2143 23.9787 94.8063 24.1813 95.2543 24.384C95.7023 24.576 96.0863 24.88 96.4062 25.296C96.7263 25.7013 96.8863 26.256 96.8863 26.96C96.8863 27.504 96.7423 28.016 96.4543 28.496C96.1663 28.976 95.7396 29.3653 95.1743 29.664C94.6089 29.9627 93.9423 30.112 93.1743 30.112ZM100.805 22.432V27.6C100.805 28.0267 100.896 28.3307 101.077 28.512C101.258 28.6827 101.573 28.768 102.021 28.768H103.093V30H101.781C100.97 30 100.362 29.8133 99.9569 29.44C99.5515 29.0667 99.3489 28.4533 99.3489 27.6V22.432H98.2129V21.232H99.3489V19.024H100.805V21.232H103.093V22.432H100.805ZM108.681 30.144C107.86 30.144 107.113 29.9573 106.441 29.584C105.78 29.2107 105.257 28.6827 104.873 28C104.5 27.3067 104.313 26.5067 104.313 25.6C104.313 24.704 104.505 23.9147 104.889 23.232C105.284 22.5387 105.817 22.0107 106.489 21.648C107.161 21.2747 107.913 21.088 108.745 21.088C109.577 21.088 110.329 21.2747 111.001 21.648C111.673 22.0107 112.201 22.5333 112.585 23.216C112.98 23.8987 113.177 24.6933 113.177 25.6C113.177 26.5067 112.974 27.3067 112.569 28C112.174 28.6827 111.636 29.2107 110.953 29.584C110.27 29.9573 109.513 30.144 108.681 30.144ZM108.681 28.864C109.204 28.864 109.694 28.7413 110.153 28.496C110.612 28.2507 110.98 27.8827 111.257 27.392C111.545 26.9013 111.689 26.304 111.689 25.6C111.689 24.896 111.55 24.2987 111.273 23.808C110.996 23.3173 110.633 22.9547 110.185 22.72C109.737 22.4747 109.252 22.352 108.729 22.352C108.196 22.352 107.705 22.4747 107.257 22.72C106.82 22.9547 106.468 23.3173 106.201 23.808C105.934 24.2987 105.801 24.896 105.801 25.6C105.801 26.3147 105.929 26.9173 106.185 27.408C106.452 27.8987 106.804 28.2667 107.241 28.512C107.678 28.7467 108.158 28.864 108.681 28.864ZM116.547 22.656C116.803 22.1547 117.166 21.7653 117.635 21.488C118.115 21.2107 118.697 21.072 119.379 21.072V22.576H118.995C117.363 22.576 116.547 23.4613 116.547 25.232V30H115.091V21.232H116.547V22.656ZM129.06 25.28C129.06 25.5573 129.044 25.8507 129.012 26.16H122.004C122.057 27.024 122.351 27.7013 122.884 28.192C123.428 28.672 124.084 28.912 124.852 28.912C125.481 28.912 126.004 28.768 126.42 28.48C126.847 28.1813 127.145 27.7867 127.316 27.296H128.884C128.649 28.1387 128.18 28.8267 127.476 29.36C126.772 29.8827 125.897 30.144 124.852 30.144C124.02 30.144 123.273 29.9573 122.612 29.584C121.961 29.2107 121.449 28.6827 121.076 28C120.703 27.3067 120.516 26.5067 120.516 25.6C120.516 24.6933 120.697 23.8987 121.06 23.216C121.423 22.5333 121.929 22.0107 122.58 21.648C123.241 21.2747 123.999 21.088 124.852 21.088C125.684 21.088 126.42 21.2693 127.06 21.632C127.7 21.9947 128.191 22.496 128.532 23.136C128.884 23.7653 129.06 24.48 129.06 25.28ZM127.556 24.976C127.556 24.4213 127.433 23.9467 127.188 23.552C126.943 23.1467 126.607 22.8427 126.18 22.64C125.764 22.4267 125.3 22.32 124.788 22.32C124.052 22.32 123.423 22.5547 122.9 23.024C122.388 23.4933 122.095 24.144 122.02 24.976H127.556Z" fill="#334155"/>
<defs>
<clipPath id="clip0_36_75">
<rect width="25" height="25" fill="white" transform="translate(16.1094 11.5)"/>
</clipPath>
</defs>
</svg>
