<svg style="padding: 2px" width="167" height="58" viewBox="0 0 147 48" fill="none" xmlns="http://www.w3.org/2000/svg">
<rect x="1.39062" y="0.5" width="144.219" height="47" rx="7.5" stroke="#334155"/>
<g clip-path="url(#clip0_36_72)">
<path d="M28.9951 17.4033L29.4395 16.6367C29.7129 16.1582 30.3232 15.9971 30.8018 16.2705C31.2803 16.5439 31.4414 17.1543 31.168 17.6328L26.8955 25.0303H29.9863C30.9873 25.0303 31.5488 26.207 31.1143 27.0225H22.0566C21.5049 27.0225 21.0605 26.5781 21.0605 26.0264C21.0605 25.4746 21.5049 25.0303 22.0566 25.0303H24.5957L27.8477 19.3955L26.832 17.6328C26.5586 17.1543 26.7197 16.5488 27.1982 16.2705C27.6768 15.9971 28.2822 16.1582 28.5605 16.6367L28.9951 17.4033ZM25.1523 28.0479L24.1953 29.708C23.9219 30.1865 23.3115 30.3477 22.833 30.0742C22.3545 29.8008 22.1934 29.1904 22.4668 28.7119L23.1797 27.4814C23.9805 27.2324 24.6348 27.4229 25.1523 28.0479ZM33.3994 25.0352H35.9922C36.5439 25.0352 36.9883 25.4795 36.9883 26.0312C36.9883 26.583 36.5439 27.0273 35.9922 27.0273H34.5518L35.5234 28.7119C35.7969 29.1904 35.6357 29.7959 35.1572 30.0742C34.6787 30.3477 34.0732 30.1865 33.7949 29.708C32.1592 26.8711 30.9287 24.7471 30.1133 23.3311C29.2783 21.8906 29.874 20.4453 30.4648 19.957C31.1191 21.0801 32.0957 22.7744 33.3994 25.0352ZM29 11.8906C22.3105 11.8906 16.8906 17.3105 16.8906 24C16.8906 30.6895 22.3105 36.1094 29 36.1094C35.6895 36.1094 41.1094 30.6895 41.1094 24C41.1094 17.3105 35.6895 11.8906 29 11.8906ZM39.5469 24C39.5469 29.7959 34.8545 34.5469 29 34.5469C23.2041 34.5469 18.4531 29.8545 18.4531 24C18.4531 18.2041 23.1455 13.4531 29 13.4531C34.7959 13.4531 39.5469 18.1455 39.5469 24Z" fill="#334155"/>
</g>
<path d="M58.9334 27.52H54.0694L53.1734 30H51.6374L55.6694 18.912H57.3494L61.3654 30H59.8294L58.9334 27.52ZM58.5174 26.336L56.5014 20.704L54.4854 26.336H58.5174ZM64.5786 22.848C64.8666 22.3467 65.2933 21.9307 65.8586 21.6C66.4346 21.2587 67.1013 21.088 67.8586 21.088C68.6373 21.088 69.3413 21.2747 69.9706 21.648C70.6106 22.0213 71.112 22.5493 71.4746 23.232C71.8373 23.904 72.0186 24.688 72.0186 25.584C72.0186 26.4693 71.8373 27.2587 71.4746 27.952C71.112 28.6453 70.6106 29.184 69.9706 29.568C69.3413 29.952 68.6373 30.144 67.8586 30.144C67.112 30.144 66.4506 29.9787 65.8746 29.648C65.3093 29.3067 64.8773 28.8853 64.5786 28.384V34.16H63.1226V21.232H64.5786V22.848ZM70.5306 25.584C70.5306 24.9227 70.3973 24.3467 70.1306 23.856C69.864 23.3653 69.5013 22.992 69.0426 22.736C68.5946 22.48 68.0986 22.352 67.5546 22.352C67.0213 22.352 66.5253 22.4853 66.0666 22.752C65.6186 23.008 65.256 23.3867 64.9786 23.888C64.712 24.3787 64.5786 24.9493 64.5786 25.6C64.5786 26.2613 64.712 26.8427 64.9786 27.344C65.256 27.8347 65.6186 28.2133 66.0666 28.48C66.5253 28.736 67.0213 28.864 67.5546 28.864C68.0986 28.864 68.5946 28.736 69.0426 28.48C69.5013 28.2133 69.864 27.8347 70.1306 27.344C70.3973 26.8427 70.5306 26.256 70.5306 25.584ZM75.3911 22.848C75.6791 22.3467 76.1058 21.9307 76.6711 21.6C77.2471 21.2587 77.9138 21.088 78.6711 21.088C79.4498 21.088 80.1538 21.2747 80.7831 21.648C81.4231 22.0213 81.9245 22.5493 82.2871 23.232C82.6498 23.904 82.8311 24.688 82.8311 25.584C82.8311 26.4693 82.6498 27.2587 82.2871 27.952C81.9245 28.6453 81.4231 29.184 80.7831 29.568C80.1538 29.952 79.4498 30.144 78.6711 30.144C77.9245 30.144 77.2631 29.9787 76.6871 29.648C76.1218 29.3067 75.6898 28.8853 75.3911 28.384V34.16H73.9351V21.232H75.3911V22.848ZM81.3431 25.584C81.3431 24.9227 81.2098 24.3467 80.9431 23.856C80.6765 23.3653 80.3138 22.992 79.8551 22.736C79.4071 22.48 78.9111 22.352 78.3671 22.352C77.8338 22.352 77.3378 22.4853 76.8791 22.752C76.4311 23.008 76.0685 23.3867 75.7911 23.888C75.5245 24.3787 75.3911 24.9493 75.3911 25.6C75.3911 26.2613 75.5245 26.8427 75.7911 27.344C76.0685 27.8347 76.4311 28.2133 76.8791 28.48C77.3378 28.736 77.8338 28.864 78.3671 28.864C78.9111 28.864 79.4071 28.736 79.8551 28.48C80.3138 28.2133 80.6765 27.8347 80.9431 27.344C81.2098 26.8427 81.3431 26.256 81.3431 25.584ZM92.5493 30.112C91.8133 30.112 91.1519 29.984 90.5653 29.728C89.9893 29.4613 89.5359 29.0987 89.2053 28.64C88.8746 28.1707 88.7039 27.632 88.6933 27.024H90.2453C90.2986 27.5467 90.5119 27.9893 90.8853 28.352C91.2693 28.704 91.8239 28.88 92.5493 28.88C93.2426 28.88 93.7866 28.7093 94.1813 28.368C94.5866 28.016 94.7893 27.568 94.7893 27.024C94.7893 26.5973 94.6719 26.2507 94.4373 25.984C94.2026 25.7173 93.9093 25.5147 93.5573 25.376C93.2053 25.2373 92.7306 25.088 92.1333 24.928C91.3973 24.736 90.8053 24.544 90.3573 24.352C89.9199 24.16 89.5413 23.8613 89.2213 23.456C88.9119 23.04 88.7573 22.4853 88.7573 21.792C88.7573 21.184 88.9119 20.6453 89.2213 20.176C89.5306 19.7067 89.9626 19.344 90.5173 19.088C91.0826 18.832 91.7279 18.704 92.4533 18.704C93.4986 18.704 94.3519 18.9653 95.0133 19.488C95.6853 20.0107 96.0639 20.704 96.1493 21.568H94.5493C94.4959 21.1413 94.2719 20.768 93.8773 20.448C93.4826 20.1173 92.9599 19.952 92.3093 19.952C91.7013 19.952 91.2053 20.112 90.8213 20.432C90.4373 20.7413 90.2453 21.1787 90.2453 21.744C90.2453 22.1493 90.3573 22.48 90.5813 22.736C90.8159 22.992 91.0986 23.1893 91.4293 23.328C91.7706 23.456 92.2453 23.6053 92.8533 23.776C93.5893 23.9787 94.1813 24.1813 94.6293 24.384C95.0773 24.576 95.4613 24.88 95.7812 25.296C96.1013 25.7013 96.2613 26.256 96.2613 26.96C96.2613 27.504 96.1173 28.016 95.8293 28.496C95.5413 28.976 95.1146 29.3653 94.5493 29.664C93.9839 29.9627 93.3173 30.112 92.5493 30.112ZM100.18 22.432V27.6C100.18 28.0267 100.271 28.3307 100.452 28.512C100.633 28.6827 100.948 28.768 101.396 28.768H102.468V30H101.156C100.345 30 99.7372 29.8133 99.3319 29.44C98.9265 29.0667 98.7239 28.4533 98.7239 27.6V22.432H97.5879V21.232H98.7239V19.024H100.18V21.232H102.468V22.432H100.18ZM108.056 30.144C107.235 30.144 106.488 29.9573 105.816 29.584C105.155 29.2107 104.632 28.6827 104.248 28C103.875 27.3067 103.688 26.5067 103.688 25.6C103.688 24.704 103.88 23.9147 104.264 23.232C104.659 22.5387 105.192 22.0107 105.864 21.648C106.536 21.2747 107.288 21.088 108.12 21.088C108.952 21.088 109.704 21.2747 110.376 21.648C111.048 22.0107 111.576 22.5333 111.96 23.216C112.355 23.8987 112.552 24.6933 112.552 25.6C112.552 26.5067 112.349 27.3067 111.944 28C111.549 28.6827 111.011 29.2107 110.328 29.584C109.645 29.9573 108.888 30.144 108.056 30.144ZM108.056 28.864C108.579 28.864 109.069 28.7413 109.528 28.496C109.987 28.2507 110.355 27.8827 110.632 27.392C110.92 26.9013 111.064 26.304 111.064 25.6C111.064 24.896 110.925 24.2987 110.648 23.808C110.371 23.3173 110.008 22.9547 109.56 22.72C109.112 22.4747 108.627 22.352 108.104 22.352C107.571 22.352 107.08 22.4747 106.632 22.72C106.195 22.9547 105.843 23.3173 105.576 23.808C105.309 24.2987 105.176 24.896 105.176 25.6C105.176 26.3147 105.304 26.9173 105.56 27.408C105.827 27.8987 106.179 28.2667 106.616 28.512C107.053 28.7467 107.533 28.864 108.056 28.864ZM115.922 22.656C116.178 22.1547 116.541 21.7653 117.01 21.488C117.49 21.2107 118.072 21.072 118.754 21.072V22.576H118.37C116.738 22.576 115.922 23.4613 115.922 25.232V30H114.466V21.232H115.922V22.656ZM128.435 25.28C128.435 25.5573 128.419 25.8507 128.387 26.16H121.379C121.432 27.024 121.726 27.7013 122.259 28.192C122.803 28.672 123.459 28.912 124.227 28.912C124.856 28.912 125.379 28.768 125.795 28.48C126.222 28.1813 126.52 27.7867 126.691 27.296H128.259C128.024 28.1387 127.555 28.8267 126.851 29.36C126.147 29.8827 125.272 30.144 124.227 30.144C123.395 30.144 122.648 29.9573 121.987 29.584C121.336 29.2107 120.824 28.6827 120.451 28C120.078 27.3067 119.891 26.5067 119.891 25.6C119.891 24.6933 120.072 23.8987 120.435 23.216C120.798 22.5333 121.304 22.0107 121.955 21.648C122.616 21.2747 123.374 21.088 124.227 21.088C125.059 21.088 125.795 21.2693 126.435 21.632C127.075 21.9947 127.566 22.496 127.907 23.136C128.259 23.7653 128.435 24.48 128.435 25.28ZM126.931 24.976C126.931 24.4213 126.808 23.9467 126.563 23.552C126.318 23.1467 125.982 22.8427 125.555 22.64C125.139 22.4267 124.675 22.32 124.163 22.32C123.427 22.32 122.798 22.5547 122.275 23.024C121.763 23.4933 121.47 24.144 121.395 24.976H126.931Z" fill="#334155"/>
<defs>
<clipPath id="clip0_36_72">
<rect width="24.2188" height="24.2188" fill="white" transform="translate(16.8906 11.8906)"/>
</clipPath>
</defs>
</svg>
