<svg width="36" height="36" viewBox="0 0 26 26" fill="none" xmlns="http://www.w3.org/2000/svg">
<g clip-path="url(#clip0_36_63)">
<path d="M12.9951 6.40332L13.4395 5.63672C13.7129 5.1582 14.3232 4.99707 14.8018 5.27051C15.2803 5.54395 15.4414 6.1543 15.168 6.63281L10.8955 14.0303H13.9863C14.9873 14.0303 15.5488 15.207 15.1143 16.0225H6.05664C5.50488 16.0225 5.06055 15.5781 5.06055 15.0264C5.06055 14.4746 5.50488 14.0303 6.05664 14.0303H8.5957L11.8477 8.39551L10.832 6.63281C10.5586 6.1543 10.7197 5.54883 11.1982 5.27051C11.6768 4.99707 12.2822 5.1582 12.5605 5.63672L12.9951 6.40332ZM9.15234 17.0479L8.19531 18.708C7.92188 19.1865 7.31152 19.3477 6.83301 19.0742C6.35449 18.8008 6.19336 18.1904 6.4668 17.7119L7.17969 16.4814C7.98047 16.2324 8.63477 16.4229 9.15234 17.0479ZM17.3994 14.0352H19.9922C20.5439 14.0352 20.9883 14.4795 20.9883 15.0312C20.9883 15.583 20.5439 16.0273 19.9922 16.0273H18.5518L19.5234 17.7119C19.7969 18.1904 19.6357 18.7959 19.1572 19.0742C18.6787 19.3477 18.0732 19.1865 17.7949 18.708C16.1592 15.8711 14.9287 13.7471 14.1133 12.3311C13.2783 10.8906 13.874 9.44531 14.4648 8.95703C15.1191 10.0801 16.0957 11.7744 17.3994 14.0352ZM13 0.890625C6.31055 0.890625 0.890625 6.31055 0.890625 13C0.890625 19.6895 6.31055 25.1094 13 25.1094C19.6895 25.1094 25.1094 19.6895 25.1094 13C25.1094 6.31055 19.6895 0.890625 13 0.890625ZM23.5469 13C23.5469 18.7959 18.8545 23.5469 13 23.5469C7.2041 23.5469 2.45312 18.8545 2.45312 13C2.45312 7.2041 7.14551 2.45312 13 2.45312C18.7959 2.45312 23.5469 7.14551 23.5469 13Z" fill="#334155"/>
</g>
<defs>
<clipPath id="clip0_36_63">
<rect width="24.2188" height="24.2188" fill="white" transform="translate(0.890625 0.890625)"/>
</clipPath>
</defs>
</svg>